<svg xmlns="http://www.w3.org/2000/svg" version="1.1" viewBox="0 0 1024 1024" width="1024" height="1024">
<path transform="translate(851,109)" d="m0 0h13l3 3v26l-3 29-5 28-7 29-9 29-8 22-13 30-10 20-13 23-13 20-11 16-16 21-11 14-12 13-7 8-11 12-15 15-8 7-15 14-11 9-3 3 1 9v36l-3 21-7 25-9 21-12 20-10 13-11 13-16 16-8 7-16 13-19 13-19 12-31 18-5 1-1-2 13-34 6-21 3-15 1-8v-31l-4-20-5-13v-3l-6 3-18 13-11 8-3 1-7-5 2 11 1 9v18l-2 14-5 17-7 16-11 18-9 11-2 3h-2l-2 4-10 10-17 13-15 10-5 3h-2l2-5 8-13 6-15 3-15 1-12-1-2-7 8-4 5h-2l-2 4-7 7-11 9-12 10-16 11-11 6-23 11-20 7-21 5-23 3h-28l-21-3-19-6-16-7-11-6-13-9v-1l13 1h26l16-3 19-7 14-8 10-8 9-8 11-14 9-15 8-20 12-35 9-19-16 7-11 6-17 12-14 13-2-1 9-25 9-19 11-18 9-11 9-10 8-8 13-10 15-9 19-9 18-6 15-3 15-1-6-5-1-3 12-22 6-10 1-3-17-3-9-1h-31l-19 3-19 6-17 7-16 8-15 8-3-1 1-8 8-20 11-24 14-26 8-12 8-11 7-9 12-14 13-13 14-11 13-9 23-12 19-7 20-5 15-2h23l12 1 16-22 11-14 9-11 11-12 7-8 25-25 8-7 15-13 20-15 17-12 21-13 18-10 16-8 17-8 19-8 32-12 26-8 34-9 36-7z" fill="#FE7C00"/>
<path transform="translate(866,112)" d="m0 0h1v26l-3 29-5 28-7 29-9 29-8 22-13 30-10 20-13 23-13 20-11 16-16 21-11 14-12 13-7 8-11 12-15 15-8 7-15 14-11 9-3 3 1 9v36l-3 21-7 25-9 21-12 20-10 13-11 13-16 16-8 7-16 13-19 13-19 12-31 18-5 1-1-2 13-34 6-21 3-15 1-8v-31l-4-20-7-19-10-17-14-18-12-13-3-1-22 18-15 12-12 9-18 13-11 7-2-1 7-10 10-13 12-15 11-14 12-15 11-14 13-15 9-11 10-11 9-11 11-12 7-8 9-10 7-8 9-10 7-8 12-14 5-6 2 4 4 22 1 8v43l-1 13 10-8 16-15 11-11 8-7 16-16 8-7 22-22-21-2-16-5-13-8-10-9-8-10-9-15-3-8 1-3 8 16 6 8 10 9 14 7 16 4h12l16-4 12-6 10-8 8-10 6-12 3-13v-13l-2-12-5-12-3-5 1-2 6 9 7 15 4 13 2 18 8-12 14-19 12-16 5 4-4-5v-2h-2l-7-8-8-8-6-7-8-7-14-13-10-8h3l9 7 4-2 9-9-5-5-2-3 5 2 12 11 8 7 13 12 16 17-2-3 1-4 11-16 15-22 12-17 18-27 13-21 13-22 12-20 4-8h1v12l1-6h1z" fill="#AC2310"/>
<path transform="translate(851,109)" d="m0 0h13l2 1v27h-1l-1-11-2 4v-14l-7 13-9 15-13 22-12 19-18 27-12 17-15 22-12 17 1 4v3l-10-10-7-8-7-7-8-7-10-9-10-8 5 5v3l-11 11-5-2-8-6 13 11 24 22 7 8 8 8v2h2l5 6-1 2-5-4-14 19-13 18-8 12-2-21-6-18-9-17-6-5-7-8-14-9-12-4-5-1h-20l-14 4-6 2 3-3 11-4 12-2 2-2 10-1 2-5 7-9 8-7 5-6 4-1-17-11 5-5 16-11 14-10 14-9 17-10 22-12 24-11 15-7 25-10 29-10 12-3 4-2-19 3-21 6-21 7-34 14-38 18-31 16-17 10-7 4-4-1-5-3v-2h-2v-2l-5 2 12 6-1 3-16 11-5-2-10-5h-2l2 1-2 9-4 5-2 3-6 3-3 5-9 5-4 5-5 3-3 6v4l-5 5-8 6-5 6-9 7-7 8-15 15-7 8-13 15-9 11-14 18-13 18-22 33-2 6-9 14-1 5-5 6-10 18-2 6h-2l-3 9-8 17 1 3 5 2 15 10-1 5-3 6-3 1-13-10-16-9-8-4-3-1-1 4 1 4h-7l-15-3-9-1h-31l-19 3-19 6-17 7-16 8-15 8-3-1 1-8 8-20 11-24 14-26 8-12 8-11 7-9 12-14 13-13 14-11 13-9 23-12 19-7 20-5 15-2h23l12 1 16-22 11-14 9-11 11-12 7-8 25-25 8-7 15-13 20-15 17-12 21-13 18-10 16-8 17-8 19-8 32-12 26-8 34-9 36-7z" fill="#FC5300"/>
<path transform="translate(853,112)" d="m0 0 4 1-12 5-12 3-29 10-23 10-11 5-26 12-16 9-11 6-10 6-17 11-18 13-13 9 10 7 7 5-4 2-17 17-6 9-2 1 1 2-19 2-13 4-1 1 11-4 5-1h20l12 3 12 6 10 8 8 9 8 16 2 6 1 9v13l-4 16-8 13-9 10-14 9-11 4-10 2h-12l-16-4-14-7-12-11-7-10-5-10 4 10 11 17 9 10 11 8 10 5 13 4 6 1 16 1-6 7-5 6-8 7-10 10-8 7-16 16-8 7-14 14-8 7-7 6h-2l-1 2 1-15v-43l-4-25-2-8-4 3 1-6-8 1 1 5-11 7-13 10-12 9-14 12-24 24-7 8-12 14-11 15-6 3 1-5-4-2-16-10-2-4 8-16 4-9h2l1-6 6-11 6-10 4-6 2-5 7-11 4-9 18-27 13-18 10-13 8-10 9-11 13-15 14-15 7-7 4-5h2l2-4 9-7 7-8 4-2 4-5h2l-1-4 3-6 3-3 5-3 5-5 3-2h3l2-5 7-4 4-6 3-7 1-3-3-1 3-1 13 7 5-2 13-9 1-2-5-2-8-4 3-2h3v2h2v2l5 2 4 1 23-13 22-12 22-11 28-13 27-11 20-7 19-6z" fill="#FD5200"/>
<path transform="translate(564,392)" d="m0 0 2 4 4 22 1 8v43l-3 18-6 21-8 20-9 17-3 3h-2l-3 2h-3v2l-6 4-4 3-7 1-8-8 6 8 10 14 4 9v4l28-15 17-10 21-13 17-11 19-13 16-12 14-11 5-5 2 1-2 4 1 7v36l-3 21-7 25-9 21-12 20-10 13-11 13-16 16-8 7-16 13-19 13-19 12-31 18-5 1-1-2 13-34 6-21 3-15 1-8v-31l-4-20-7-19-10-17-14-18-12-13-3-1-22 18-15 12-12 9-18 13-11 7-2-1 7-10 10-13 12-15 11-14 12-15 11-14 13-15 9-11 10-11 9-11 11-12 7-8 9-10 7-8 9-10 7-8 12-14z" fill="#8A2213"/>
<path transform="translate(851,109)" d="m0 0h13l2 1v27h-1l-1-11-2 4v-14l-7 13-9 15-13 22-12 19-18 27-12 17-15 22-12 17 1 4v3l-10-10-7-8-7-7-8-7-10-9-10-8 5 5v3l-11 11-5-2-8-6 13 11 24 22 7 8 8 8v2h2l5 6-1 2-5-4-14 19-13 18-8 12-2-21-6-18-9-17-6-5-7-8-14-9-12-4-5-1h-20l-14 4-6 2 3-3 11-4 12-2 2-2 10-1 2-5 7-9 8-7 5-6 4-1-17-11 5-5 16-11 14-10 14-9 17-10 22-12 24-11 15-7 25-10 29-10 12-3 4-2-14 2h-8l2-2-1-2z" fill="#FD5300"/>
<path transform="translate(392,540)" d="m0 0 5 2 10 8 3 3-1 5-8 16-6 13-4 10v2l12-7 18-13 11-8 4 2 12 12 1 3h-2l-5 18-12 25-11 18-11 15-9 11-19 19-17 13-18 13-18 11-23 12-19 6-10 2h-19l-3-1 1-3 13-9 10-9 8-9 8-13 8-19 12-41 8-24 9-20 9-15 12-14 10-10 13-10 16-9h2v-4z" fill="#FEB400"/>
<path transform="translate(447,351)" d="m0 0h10l-2 5-10 15-14 24-12 23-11 23-11 26-1 2 9 1 17 8 16 10 7 5-1 5-3 6-3 1-13-10-16-9-8-4-3-1-1 4 1 4h-7l-15-3-9-1h-31l-19 3-19 6-17 7-16 8-15 8-3-1 1-8 8-20 7-16 2 3 5 1 12-19 11-15 7-9 9-10 7-8 12-12 11-9 13-10 16-10 15-8 21-8 16-4z" fill="#DA2A02"/>
<path transform="translate(665,513)" d="m0 0h1v27l-2 20-6 23-2 10-8 19-12 20-10 13-11 13-16 16-8 7-16 13-19 13-19 12-31 18-5 1-1-2 11-28h2l3-10 2-6 1 3-3 10v3l9-16 8-18 6-16 4-15 3-19 1-20 11-3 10-3v2l7-6 4-1 1 1h4l1-2 7-1-1-4 10-6 2 1-2 2 10-1 11-8 16-7 3 3 3-15 2-23h1v13l10-5 5-3h2v-24z" fill="#AB2310"/>
<path transform="translate(866,112)" d="m0 0h1v26l-3 29-5 28-7 29-9 29-8 22-13 30-10 20h-2l-3 6-3-4-14-21-10-13-12-14-5-8 1-4 11-16 15-22 12-17 18-27 13-21 13-22 12-20 4-8h1v12l1-6h1z" fill="#AB2310"/>
<path transform="translate(447,351)" d="m0 0h10l-2 5-10 15-14 24-12 23-11 23-11 26-1 2 9 1 17 8 16 10 7 5-1 5-3 6-3 1-13-10-16-9-8-4-3-1-1 4 1 4h-7l-15-3-9-1h-31l-19 3-19 6-17 7-16 8-15 8-3-1 1-4 1 2 6-1v-3l2-1 2-4 8-4 13-10 19-12 21-11 20-8 22-6 13-2h-13v-8l3-7 7-12 7-7 7-10 3-5 8-7 8-11 9-10 4-6 5-6 4-7-13 2-20 6-6 1 2-2 18-6 12-3z" fill="#8B2214"/>
<path transform="translate(395,542)" d="m0 0 5 2 10 9-1 5-8 16-6 13-4 10v2l12-7 18-13 11-8 4 2 12 12 1 3h-2l-7-8-3-3-4-1-2 7-3 3-8 16-13 18-1 2 5-6 5-1h6v2l5 1-2 6-10 10-7 8-11 10-11 8-4 2h-5l-1-11-2 1-9 8-11 9-10 8-17 13-2 1 3-12 6-22 10-45 1-4-2-3 5-10 9-14 9-10 10-9 11-8 10-6h2z" fill="#FED400"/>
<path transform="translate(780,330)" d="m0 0 5 5 10 16-4 10-7 10-12 17-16 21-11 13-7 8-11 12-7 8-17 17-8 7-15 14-11 9-5 3-10 9-19 14-14 10-18 12-6-1v-2l-6 3-9 4h-4v-3l-4-1 1-3 9-6 3-1 5-5 12-10 14-11 16-13 10-9 8-7 10-9 16-15 22-22 7-8 11-12 9-11 11-13 12-16 14-19 8-12 7-10z" fill="#AE2D22"/>
<path transform="translate(711,225)" d="m0 0 5 2 12 11 8 7 13 12 16 17 13 15 11 14 4 5 4 7 9 14 5-5-2 6-10 18-6 9-1-2 2-4-13-20-8 12-11 16-14 19-11 14-22 26-13 14-7 8-26 26-8 7-15 14-11 9-9 8-17 13-3 3-2-1 2-3h-2l1-5 10-12 4-5 8-7 5-5 14-15 8-5h2l3-6h2l2-4 3-5 4-5 5-2 2-6 7-9 5-5 6-9 5-4h2l2-4 7-10 6-5 6-7 5-5 5-7 5-3 2-4 3-2 1-3h2l2-4 4-5h2v-2l5-5 2-3h2l2-4 5-8 3-1 1-2-2-4-8-10v-2h-2l-8-10-6-7v-2h-2l-7-8-8-8-6-7-8-7-14-13-10-8h3l9 7 4-2 9-9-5-5z" fill="#8A2213"/>
<path transform="translate(553,390)" d="m0 0h8v7l-11 12-7 8-9 10-7 8-9 10-7 8-12 14-9 10-7 8-22 26-11 14-10 12-11 14-14 18-13 16-5 7-4 7-3 1 1-6 8-18 8-17 2-3-1-4-8-7-14-9-4-1-14-1v-1l13-1-6-5-1-3 12-22 6-10 1-3h5l-2-5 2-3 6 1 18 10 16 12 3-1 2-5 5-4 2 1 2-4 10-13 12-14 14-15 20-20 11-9 24-18 7-5 3-1 1-4-2-1z" fill="#FD5200"/>
<path transform="translate(473,538)" d="m0 0 4 2 8 8 11 14 10 14 8 14-3 2-17 12-12 9-6 3-7-5 2 11 1 9v18l-2 14-5 17-7 16-11 18-9 11-2 3h-2l-2 4-10 10-17 13-15 10-5 3h-2l2-5 8-13 6-15 3-14 1 2h2v3l7-2 12-15 8-13 11-21 8-22 5-22 2-15v-17l-8-10-11-12-6-7 14-11 16-13z" fill="#FD5300"/>
<path transform="translate(851,109)" d="m0 0h13l2 1v27h-1l-1-11-2 4v-14l-7 13-9 15-13 22-12 19-18 27-12 17-15 22-12 17 1 4v3l-4-5-6-8-14-15-7-6-5-5-7-5 6-7 9-9 8-7 9-9 8-7 10-9 11-9 10-9 11-9 15-13 10-8 16-13 3-3h-5l2-2 10-4-14 2h-8l2-2-1-2z" fill="#F02E00"/>
<path transform="translate(639,271)" d="m0 0h11l12 4 9 6 5 4 7 10 4 12v10l-2 7-2 3-3 1-4 9-6 8-8 7-10 4-4 1h-15l-13-5-8-6-7-11-3-12v2l2 11 1 7v3l-2 1-5-8-4-16v-8l3-13 6-11 10-10 16-8z" fill="#FC5100"/>
<path transform="translate(853,112)" d="m0 0 4 1-12 5-12 3-29 10-23 10-11 5-26 12-16 9-11 6-10 6-17 11-18 13-13 9 10 7 7 5-4 2-17 17-6 9-2 1 1 2-19 2-13 4-9 5-2-1 1-2-6 1-5 3h-2l-2 4h-3l-1-3-10 8-10 9-8 7-40 40-7 8-13 15-9 11-10 13-8 11-4 7-3 2 2-5 18-27 13-18 10-13 8-10 9-11 13-15 14-15 7-7 4-5h2l2-4 9-7 7-8 4-2 4-5h2l-1-4 3-6 3-3 5-3 5-5 3-2h3l2-5 7-4 4-6 3-7 1-3-3-1 3-1 13 7 5-2 13-9 1-2-5-2-8-4 3-2h3v2h2v2l5 2 4 1 23-13 22-12 22-11 28-13 27-11 20-7 19-6z" fill="#FE7D00"/>
<path transform="translate(584,351)" d="m0 0 3 2-1 7-2 4h2v2l8-1 9 10 5 3 14 9 14 5 10 2 16 1-6 7-5 6-8 7-10 10-8 7-16 16-8 7-14 14-8 7-7 6h-2l-1 2 1-15v-43l-4-25-2-8-4-4-7-1 4-2h2l2-5 12-17 8-10z" fill="#F02F00"/>
<path transform="translate(563,395)" d="m0 0h1l-1 11-5 19-6 16-10 19-14 21-11 13-9 10-7 8-12 12-11 9-5 6-22 18-15 12-12 9-18 13-11 7-2-1 7-10 10-13 12-15 11-14 12-15 11-14 13-15 9-11 10-11 9-11 11-12 7-8 9-10 7-8 9-10 7-8 12-14z" fill="#BE270C"/>
<path transform="translate(676,199)" d="m0 0 11 7 16 11 9 7 1 3 6 5-6 7-6 6-5-2-8-6 13 11 24 22 7 8 8 8v2h2l5 6-1 2-5-4-14 19-13 18-8 12-2-21-6-18-9-17-6-5-7-8-14-9-12-4-5-1h-20l-14 4-6 2 3-3 11-4 12-2 2-2 10-1 2-5 7-9 8-7 5-6 4-1-17-11 5-5z" fill="#FC5100"/>
<path transform="translate(665,513)" d="m0 0h1v27l-2 20-6 23-2 10-8 19-12 20-10 13-11 13-16 16-8 7-16 13-19 13-19 12-31 18-5 1-1-2 11-28h2l3-10 2-6 1 3-3 10v3l9-16 3-6 1 3-7 15 6 2h4v4h4l11-9 10-8 15-14 19-19 7-8 11-14 10-15 7-11 4-10 6-14 6-21 3-20 1-14h1v13l10-5 5-3h2v-24z" fill="#BF280C"/>
<path transform="translate(433,333)" d="m0 0h23l12 1 2-1-1 3h-2l-2 5-7 11h-11l-27 3-22 6-21 9-16 9-17 12-11 9-13 12-9 9-7 8-8 10-13 18-13 20-1-2-6 1 2-8 13-25 7-11 11-16 8-10 12-14 13-13 14-11 13-9 23-12 19-7 20-5z" fill="#F95000"/>
<path transform="translate(833,111)" d="m0 0 7 1v1l-5 1 1 2-21 6-21 7-34 14-38 18-31 16-17 10-7 4-4-1-5-3v-2h-2v-2l-5 2 12 6-1 3-16 11-5-2-16-8-10-4 5-4 15-9 18-10 26-12 19-8 32-12 26-8 34-9 36-7z" fill="#F95000"/>
<path transform="translate(427,353)" d="m0 0h27l-2 5-7 10-15 26-7 12-11 23-10 22-1 1h-39v-8l3-7 7-12 7-7 7-10 3-5 8-7 8-11 9-10 4-6 5-6 4-7-13 2-20 6-6 1 2-2 18-6 12-3z" fill="#AC2310"/>
<path transform="translate(298,750)" d="m0 0h7l3 2h7l10 4 2 1-1 4-2 5-2 1 2 2-17 8-20 7-21 5-23 3h-28l-21-3-14-4-1-2h3l-3-2-2-6 7-3 35-2 32-5 24-7 15-6z" fill="#FD5300"/>
<path transform="translate(631,257)" d="m0 0h20l12 3 12 6 10 8 8 9 3 5-1 3 1 5-6 4v21l-3 12-6 11-8 9-14 8-9 2h-18l-11-4-9-6-4-5-2-6v-2l-1-4 5 5 3 5 11 7 9 3h15l12-4 8-6 6-7 4-8 2-5 3 1 1-4 2-6v-10l-5-14-6-8-11-8-10-4-4-1h-11l-13 3-13 7-9 9-6 11-3 13v8l4 16 4 6-1 2-4-5v-2h-5l-4-3h-4l-2-5-2 2-2-9v-13l4-16 6-12 12-13 10-7 12-5z" fill="#FEC800"/>
<path transform="translate(711,225)" d="m0 0 5 2 12 11 8 7 13 12 16 17 13 15 11 14 4 5 4 7 9 14 5-5-2 6-10 18-6 9-1-2 2-4-13-20-2-1-4-7-11-14v-2h-2l-8-10-6-7v-2h-2l-7-8-8-8-6-7-8-7-14-13-10-8h3l9 7 4-2 9-9-5-5z" fill="#8A2214"/>
<path transform="translate(859,147)" d="m0 0 2 2 2-2v19l-1 14-8 36-8 28-9 26-11 26-12 25-3 4-3 3-2 3-7-12-6-8 1-5 12-22 14-28 12-28 8-20h2l3-11 11-38 1-6-1-2h3z" fill="#AE2D20"/>
<path transform="translate(694,289)" d="m0 0 3 1 5 12 2 12v13l-4 16-8 13-9 10-14 9-11 4-10 2h-12l-16-4-14-7-12-11-7-10-6-13 1-7 2 3 2 4 5 1 2 2 5 1 4 6h2l-1-4 1-1-3-16v-13l2-4v15l3 13 2 7v2l4 7 9 6 11 4h18l11-3 12-7 9-11 5-11 2-9v-21l5-4h2z" fill="#FE7B00"/>
<path transform="translate(703,248)" d="m0 0 4 2 12 11 7 4 15 16 5 5v2h2l5 6-1 2-5-4-14 19-13 18-8 12-2-21-6-18-9-17-6-5-7-8-12-8 2-1 11 7 9-9 7-8z" fill="#F02F00"/>
<path transform="translate(659,395)" d="m0 0 3 1-29 29-8 7-16 16-8 7-14 14-8 7-7 6h-2l-1 2 1-15 1-29h1v-16l1 3h2l2 3 9 1 5-2 3 2 2-5 14-7h2l9-7 2-5 9-3 1-4 7-4z" fill="#DA2A02"/>
<path transform="translate(693,283)" d="m0 0 4 4 8 15 6 18 1 8v11l-3 15-8 17-8 9-13 9-9 4-4 1h-27l-16-5-13-8-10-9-8-10-9-15-3-8 1-3 8 16 6 8 10 9 14 7 16 4h12l16-4 12-6 10-8 8-10 6-12 3-13v-13l-2-12-5-12-3-5z" fill="#8B2213"/>
<path transform="translate(644,207)" d="m0 0 4 1 7 4-4 4-14 10-4 4-4 3-5 3-3 4-5 2-5 5-5 4-4 3-12 10-5 5-13 12-10 8-43 43-7 8-13 15-9 11-10 13-8 11-4 7-3 2 2-5 18-27 13-18 10-13 8-10 9-11 13-15 14-15 7-7 4-5h2l2-4 9-7 7-8 4-2 4-5h3l2-4 9-6 15-13 3-2 5-5 6-3z" fill="#FBA73B"/>
<path transform="translate(393,489)" d="m0 0 8 1 17 8 14 10 4 3-2 5-8 13-7 12-4-1-16-11-15-8-6-1 1-5 13-23z" fill="#FEB300"/>
<path transform="translate(427,353)" d="m0 0h27v1h-10l-5 10h-2l-1 3-4 3h-2l-2 4-7 11-5 5-14 18-7 8-9 17-5 8-1 8 1 2-10 1h-9v-8l3-7 7-12 7-7 7-10 3-5 8-7 8-11 9-10 4-6 5-6 4-7-13 2-20 6-6 1 2-2 18-6 12-3z" fill="#BE270D"/>
<path transform="translate(553,388)" d="m0 0h7l3 2-1 5-2 1 1-6-8 1 1 5-11 7-13 10-12 9-14 12-24 24-7 8-12 14-11 15-4-1 2-6 9-15 10-14 11-14 9-10 7-8 14-13 18-13 18-10z" fill="#FE7D01"/>
<path transform="translate(360,534)" d="m0 0h6v2h9l2 5-16 4-15 5-18 10-16 12-13 12-5 5-8 9-5-2-2-3v-7l4-9 8-5 3-4 3-2 5-5 5-3v-3l21-11 16-6z" fill="#FD5400"/>
<path transform="translate(853,112)" d="m0 0 4 1-12 5-12 3-29 10-23 10-11 5-26 12-16 9-11 6-10 6-17 11-12 9-9-4-1-4 16-9 4-4 26-14 39-19 36-15 20-7 19-6z" fill="#FBAC32"/>
<path transform="translate(481,561)" d="m0 0 5 5 8 10 10 15 4 1-1 3-20 14-6 5h-6l-1-2h2l-1-9-4-10-5-7v-2h-2l-2-5-2-1 17-14z" fill="#FE7F00"/>
<path transform="translate(711,225)" d="m0 0 5 2 12 11 8 7 13 12 4 5 2 5-2 3-2 6-3 5 2 2 5-6v3l-5 7-4-2-9-9-4-2-8-9-8-7-14-13-10-8h3l9 7 4-2 9-9-5-5z" fill="#AA2311"/>
<path transform="translate(639,271)" d="m0 0h11l12 4 9 6 5 4 7 10 4 12v10l-2 7-2 3-3-1v-15l-3-9-4-7-9-9-10-5-4-1h-15l-11 4-11 8-6 9-3 8-2 3v13l2 11 1 7v3l-2 1-5-8-4-16v-8l3-13 6-11 10-10 16-8z" fill="#FB4F00"/>
<path transform="translate(661,398)" d="m0 0 2 1 1 7-9 12-11 16h-2l-2 4-10 10-13 9-12 8-10 5-8 6-3-1 2-4 13-13 3-5 16-15 13-13 8-7 15-15 5-4z" fill="#BE270D"/>
<path transform="translate(676,199)" d="m0 0 11 7 16 11 9 7 1 3 6 5-6 7-6 6-5-2-7-6-5-2-12-9-20-13 5-5z" fill="#DA2902"/>
<path transform="translate(820,177)" d="m0 0h3l-2 5-2 6-16 24-12 17-15 22-12 17 1 4v3l-4-5-6-8-7-8v-2l4 2 1 3 4-1 6-9 14-18 7-11 6-5 9-13 11-11 4-5 5-5z" fill="#DD2A01"/>
<path transform="translate(395,470)" d="m0 0 6 1 11 4 13 7 5 1 15 10-1 5-3 6-3 1-13-10-16-9-8-4-3-1-1 4 1 4h-7l-3-1v-2l-18-2h-37l-12 2h-6l4-2 12-3 9-3 13-1h14l9 1 15 1 1 1z" fill="#AB2311"/>
<path transform="translate(594,542)" d="m0 0h3v2l4 2-22 14-19 11-18 10-11 6h-2l-3-9 1-3 15-10 11-7 13-9 2-1 5-4 7 1v3l7-2z" fill="#C2280C"/>
<path transform="translate(747,291)" d="m0 0 8 6-3 3-4 16-3 4-3 7-6 9-6 4-4 5-8 7-1 1h-6l-3 4 2-11 1-7 5-5 7-11 16-21z" fill="#BE270C"/>
<path transform="translate(310,592)" d="m0 0 3 1-5 2-1 4-4 6v2l2 1-2 4-8 11-3 4-2-3-23 11-7 4v-2l-4 1-1-6 4-8 2-6 9-4 14-8 11-6 6-4z" fill="#FD5300"/>
<path transform="translate(683,181)" d="m0 0 2 1-15 9h-2l2 4 7 3-5 5-14 10-19 13h-3l9-7 9-6-4-3-3-2-5 1-9 7-5 2-5 5-11 9-12 10-5 3-2 2-1-4 3-6 3-3 5-3 5-5 3-2h3l2-5 7-4 4-6 3-7 1-3-3-1 3-1 13 7 5-2 13-9 1-2-5-2-8-4 3-2h3v2h2v2l5 2 4 1z" fill="#FE8101"/>
<path transform="translate(734,278)" d="m0 0 6 2 6 6v2h2l5 6-1 2-5-4-14 19-13 18-8 12-1-22-1-7h2l2-4 4-2v-2h2l2-6 4-6 5-12h3z" fill="#DC2A01"/>
<path transform="translate(562,277)" d="m0 0 7 3-1 4-10 9-39 39-7 8-13 15-9 11-10 13-8 11-4 7-3 2 2-5 18-27 13-18 10-13 8-10 9-11 13-15 15-14z" fill="#FE890B"/>
<path transform="translate(387,353)" d="m0 0 5 1 2 6 9-2-2 2-20 8-17 9-20 14-11 9-2-1 7-6-4-4 1-4 8-8 6-5h2v-2l17-10z" fill="#FE7C00"/>
<path transform="translate(699,301)" d="m0 0 2 3 2 17-2 17-2 7-7 11-9 10-14 9-11 4-10 2h-12l-16-4-14-7-12-11-6-9-1-6 3 3 3 5v2l3 1 4 4v2l5 2 8 5 13 5 4 1h23l13-4 9-5 10-9 7-11 3-8 3-14 1-18z" fill="#F94C00"/>
<path transform="translate(686,303)" d="m0 0 1 3h2l1 2v13l-3 12-6 11-8 9-14 8-9 2h-18l-11-4-9-6-4-5-2-6v-2l-1-4 5 5 3 5 11 7 9 3h15l12-4 8-6 6-7 4-8 2-5 3 1 1-4 2-6z" fill="#FFD100"/>
<path transform="translate(635,279)" d="m0 0h15l11 4 10 9 6 7-1 3-5-7-10-6-8-2h-12l-10 3-11 7-8 11-3 8-1 6v13l2 6-4-4-3-9-1-5v-8l3-12 5-8 4-5 10-7z" fill="#A62311"/>
<path transform="translate(635,178)" d="m0 0 9 3 19 10-1 3-16 11-5-2-16-8-10-4 5-4z" fill="#BA280E"/>
<path transform="translate(636,262)" d="m0 0h16v3l10 2 8 1 2 4h6l2 4h5l7 8 4 4-1 3 1 5-6 4v8l-1-2h-2v-3h-2l-4-10-6-8-6-5-5-5-11-4h-21l2-2 12-1-1-5h-9z" fill="#FEB500"/>
<path transform="translate(598,282)" d="m0 0 2 3-1 5 2 3-5 10-2 8v15l3 13 3 1 3 5-1 2-4-5v-2h-5l-4-3h-4l-2-5-2 2-2-9v-13l1 2 3-1 3-13 7-13z" fill="#FFB400"/>
<path transform="translate(836,215)" d="m0 0 1 3-12 29-16 33-11 21-4 7-1-3-1-9 1-5 4-10 6-9 4-9 10-18 6-5h2l9-20z" fill="#8A2214"/>
<path transform="translate(423,504)" d="m0 0 7 4 2 2 4 1-2 5-8 13-7 12-4-1-11-8 5-9 11-15z" fill="#FEB400"/>
<path transform="translate(414,615)" d="m0 0h8v2l5 1-2 6-10 10-7 8-6 5-5-4v-3l-4 1-1-5 4-5 5-5 7-6 3-4z" fill="#FFC700"/>
<path transform="translate(675,201)" d="m0 0 5 2 10 7 5 8-3 3-3 5-4 3-21-14-1-5z" fill="#F12F00"/>
<path transform="translate(469,333)" d="m0 0v3h-2l-2 5-7 11-2-1h-25l1-9 3-5v-1l11-1h10v-1h12z" fill="#F12F00"/>
<path transform="translate(683,181)" d="m0 0 2 1-15 9h-2l2 4 7 3-5 5-14 10-19 13h-3l9-7 9-6-4-3-3-2h-5l5-5 15-10 1-2-5-2-8-4 3-2h3v2h2v2l5 2 4 1z" fill="#FE9106"/>
<path transform="translate(725,169)" d="m0 0 2 1-4 2-2 4h-2v2l-4 2-3 5-8 5-9 4-6 4h-2l1 3h-3l10 7 8 6v2l4 1 7 5v3l3 1-1 2-13-10-20-14-6-4 5-5 11-8 14-9 12-7z" fill="#FE7A00"/>
<path transform="translate(866,112)" d="m0 0h1v26l-3 29-1 6h-1v-24l-5 2 1-13h-2l-1 5-8 9h-3v2h-2l2-6 5-8 1-4 10-18 3-4v12l1-6h1z" fill="#B3270E"/>
<path transform="translate(353,385)" d="m0 0 2 1-3 5h-2l-2 7-9 7-7 5h-2l-2 4-4 3h-2l-2 4-4 3h-3v2l-5 3-5 4 2-6 14-15 9-9 11-9 9-7z" fill="#EC2E00"/>
<path transform="translate(405,493)" d="m0 0 5 1 11 6 11 8 2 3-4-2-7-4-10 14-7 10-1 2-4-1-7-4 2-1 2 1 1-5 3-10h5l5-8 2-4-9-5z" fill="#FEC801"/>
<path transform="translate(398,481)" d="m0 0 6 1 18 10 12 9 5 4v4h-2v2l-4-1-9-7-14-8-12-5-2-6z" fill="#FE8500"/>
<path transform="translate(347,477)" d="m0 0h20l9 1 15 1 1 2v8l-4-1v-2l-18-2h-37l-12 2h-6l4-2 12-3 9-3z" fill="#AB2310"/>
<path transform="translate(665,513)" d="m0 0h1v27l-1 14-4 3-7 2h-8l-1-12 1-14h1v13l10-5 5-3h2v-24z" fill="#AF2412"/>
<path transform="translate(633,257)" d="m0 0h18l12 3 12 6 10 8 8 9-1 2-7-8-5-1-2-3-6-1-2-3-16-2-3-2v-2l-18-1-6-1 3-2z" fill="#FECF00"/>
<path transform="translate(853,112)" d="m0 0 4 1-12 5-12 3-29 10-7 3-11 2-1-4 12-5 27-9 22-5z" fill="#FC9320"/>
<path transform="translate(442,534)" d="m0 0v3l-2 4v7l-3 5h-2l-2 4-7 1-5 6 1 4-3 6-4 2-1 3-9 5-7 9 3 1-6 4-2-1 7-10 10-13 12-15 11-14z" fill="#A52211"/>
<path transform="translate(686,303)" d="m0 0 1 3h2l1 2v13l-3 12-6 11-8 9-4 2-6-2 3-3 4-1 3-5 6-1-1-2-3 2-2-1 2-5 4-9 2-2 2 1 1-4 2-6z" fill="#FFCE00"/>
<path transform="translate(620,264)" d="m0 0 3 1-6 3-11 5-2 4-5 2-1 4-6 7-6 13-2 10-4 1v-8l3-10 6-12 12-13 9-6 3 2z" fill="#FECC01"/>
<path transform="translate(648,187)" d="m0 0 6 1 8 5-5 4-11 8-3-1-3-3-5-3 5-4z" fill="#EE2E00"/>
<path transform="translate(397,528)" d="m0 0 5 2 14 10 2 4-3 5-7 14-1 7-4 4-4 8v5l-4 6v3l-4 4-1-3 8-19 9-19 2-3-1-4-4-5h5l1-3h6v-2l-4-2-15-11z" fill="#E62F01"/>
<path transform="translate(416,426)" d="m0 0 3 1-1 9-3 5-2 13-4 9-5 1-3-2 3-10 4-8 3-2 1-1-2-1 2-6 3-3z" fill="#F12F00"/>
<path transform="translate(263,472)" d="m0 0 2 3h4l1 4-10 18-5 7-5-1 6-15z" fill="#EB3502"/>
<path transform="translate(194,784)" d="m0 0 6 2v2l23 1h15l12-1 3-1 16-2 9-1-2 3-23 4-10 1h-28l-16-2v-2l-7-1 1-2z" fill="#F95D01"/>
<path transform="translate(447,351)" d="m0 0h10l-2 5-10 15-14 24-12 23-11 23-2 5-2-2 11-24 10-19 13-23 12-19 4-6-25 1v-1z" fill="#8F2213"/>
<path transform="translate(605,336)" d="m0 0 5 5 3 5 11 7 9 3h19l-1 2-15 2h-8l-10-4-4-2-5-5-3-5 1-3z" fill="#fc0"/>
<path transform="translate(860,122)" d="m0 0h1v10l-1 5-4 1-1 5-8 9h-3v2h-2l2-6 5-8 1-4 4-7 4-4z" fill="#BA270D"/>
<path transform="translate(851,109)" d="m0 0h13l2 1v27h-1l-1-11-2 4v-16l-2-1-1 4-2-2h-5l3-2-14 2h-8l2-2-1-2z" fill="#E02E05"/>
<path transform="translate(469,333)" d="m0 0v3h-2l-2 5-7 11-8-3 1-5 2-3h2l1-7h12z" fill="#D92A03"/>
<path transform="translate(711,225)" d="m0 0 5 2 12 11h-3l-4-3-3-2-5-5zm6 9m-1 1m-1 1m-22 0 4 2 8 6 4-2 6-5v3l3 1-3 9 5 7-4-2-3-3-5-2-10-9z" fill="#AA240F"/>
<path transform="translate(504,346)" d="m0 0v3l-9 11-10 12-10 14-7 11-3 2 2-5 18-27 13-18 5-2z" fill="#FD911E"/>
<path transform="translate(666,497)" d="m0 0 2 1-2 4 1 7v36l-3 21-6 22h-1l1-8 5-20 2-20 1-27h-2l-2-8-3 3h-2l2-4z" fill="#912513"/>
<path transform="translate(376,478)" d="m0 0 15 1 1 2v8l-4-1v-2l-18-2v-2l-5-1 4-1z" fill="#A92311"/>
<path transform="translate(613,293)" d="m0 0 7 1-3 4-1 4h-2l-6 12-2 7h-1l-1-10 4-11 5-6z" fill="#AE2D21"/>
<path transform="translate(432,571)" d="m0 0 4 2 12 12 1 3h-2l-7-8-3-3-4-1-2 7-5 4-2-4-1-3 3-5z" fill="#FFC800"/>
<path transform="translate(614,353)" d="m0 0 4 2 10 4 18-1 5-1 1-2 5-1 1 3-6 1-2 5h-18l-11-4-6-4z" fill="#FFCD00"/>
<path transform="translate(682,300)" d="m0 0 2 3 2 4h1v10l-2 7-2 3-3-1v-15l-1-8 2 1z" fill="#FE8400"/>
<path transform="translate(723,231)" d="m0 0 8 6 3 2v2l4 2 13 13 9 11 2 3-4-2-12-13-16-15-9-7z" fill="#FA4E00"/>
<path transform="translate(635,279)" d="m0 0h15l11 4 10 9 6 7-1 3-5-7-10-6-2-2h4l-8-4-7-2h-10l-13 4-6 4-2-1 9-6z" fill="#912213"/>
<path transform="translate(333,483)" d="m0 0h37l18 3-1 2-20-3h-31l-19 3-10 2-1-2 5-2z" fill="#912713"/>
<path transform="translate(587,353)" d="m0 0 5 5 7 11 7 7-1 2-10-10-1-2h-8v-2h-2v-4h2z" fill="#FB4D00"/>
<path transform="translate(585,291)" d="m0 0 3 1v6l-2 5-2 10-4 1v-8l3-10z" fill="#FFC800"/>
<path transform="translate(523,661)" d="m0 0h2l-1 12-2 5-1 10-5 12-3 8-1-3 6-20z" fill="#972718"/>
<path transform="translate(420,526)" d="m0 0h5l-6 12-3 1-5-5 3-1 2-4z" fill="#FF7E00"/>
<path transform="translate(583,254)" d="m0 0 2 1-7 7v-3zm-7 8m-1 1m-2 1 2 1-10 11h-2l-7 8-12 12v-3l15-15 4-5h2l2-4z" fill="#FDA417"/>
<path transform="translate(581,336)" d="m0 0 2 2 8 16 8 9 2 4 7 5-3 2-4-4-3-1-11-17-5-10z" fill="#9B2311"/>
<path transform="translate(336,396)" d="m0 0 2 1-26 26v2l-5 3-2-1 14-15 9-9z" fill="#C22809"/>
<path transform="translate(414,426)" d="m0 0h2v5l-3 1-2 6-1 2 3 1-1 3h-4l-2 6-3 8-4 4 3-9 11-25z" fill="#FA4D00"/>
<path transform="translate(714,239)" d="m0 0 4 2-3 9 5 7-4-2-9-8 6-7z" fill="#BE270D"/>
<path transform="translate(194,784)" d="m0 0 6 2v2l23 1 15 1v1h-33l-6-1v-2l-7-1 1-2z" fill="#FE7900"/>
<path transform="translate(397,480)" d="m0 0h6l17 9 14 10 6 5-2 1-13-10-16-9-8-4z" fill="#972311"/>
<path transform="translate(851,109)" d="m0 0 9 2-3 2-16 2h-8l2-2-1-2z" fill="#E43503"/>
<path transform="translate(614,301)" d="m0 0 1 2-5 10-2 9v13l2 6-4-4-3-9v-3h2l3-14z" fill="#952312"/>
<path transform="translate(693,283)" d="m0 0 4 4 8 15 2 5-1 7h-3l-2-12-5-12-3-5z" fill="#9A2311"/>
<path transform="translate(673,201)" d="m0 0 2 1-11 8v5l5 2 11 8-1 2-10-7-11-7 5-5z" fill="#DE2D01"/>
<path transform="translate(508,414)" d="m0 0 2 1-28 28v-3l15-16 10-9z" fill="#FE9803"/>
<path transform="translate(447,351)" d="m0 0h10l-2 5-9 13-2-1 10-15-25 1v-1z" fill="#922213"/>
<path transform="translate(677,343)" d="m0 0 2 1-2 5-7 6-7-2 3-3 4-1 3-5z" fill="#FFCB00"/>
<path transform="translate(392,752)" d="m0 0h2l-1 7 2 3-10 6h-2l2-5z" fill="#FB6703"/>
<path transform="translate(338,540)" d="m0 0 2 1v2l-16 6-9 5-2-1 3-3 17-8z" fill="#FA6100"/>
<path transform="translate(685,322)" d="m0 0 1 3-1 8-3 3-4 1 1-4-1-2 2-5 3 1 1-4z" fill="#FFB500"/>
<path transform="translate(267,503)" d="m0 0 2 2-9 5-4 4-6 3-3-1 1-4 1 2 6-1v-3l2-1 2-4 4-1h2z" fill="#AE2A14"/>
<path transform="translate(483,370)" d="m0 0 2 2-10 14-7 11-3 2 2-5z" fill="#FCA72E"/>
<path transform="translate(399,546)" d="m0 0 3 2v3h-2l-2 4-5 2-3-3 1-3 6-3h2z" fill="#FFC801"/>
<path transform="translate(563,395)" d="m0 0h1v6l-4 8-5-4 2-5z" fill="#CE2805"/>
<path transform="translate(398,579)" d="m0 0 1 3v5l-4 6v3l-4 4-1-3 7-17z" fill="#DF2E02"/>
<path transform="translate(394,473)" d="m0 0h1l1 7 2 1-1 4 1 4h-6v-9z" fill="#DF2B01"/>
<path transform="translate(684,353)" d="m0 0 1 4-7 7-7 4-1-3h3v-2l3-1 2-5h2l1-3z" fill="#FE6500"/>
<path transform="translate(652,262)" d="m0 0h4v2h7l7 3v1l-16-1-3-2z" fill="#FFC801"/>
<path transform="translate(849,138)" d="m0 0v3l-7 14-3 1 2-5 7-12zm-11 18 2 2-3 8h-2l-1 3-1-2 2-5z" fill="#AF250F"/>
<path transform="translate(518,692)" d="m0 0 1 3-3 10-1 7-5 4-2 2 1-5 2-5h2l3-10z" fill="#AF270F"/>
<path transform="translate(853,112)" d="m0 0 4 1-12 5h-7l-9 2 1-2 12-3h4v-2z" fill="#FD8915"/>
<path transform="translate(397,528)" d="m0 0 5 2 14 10 2 4-4 6-2-1 2-5h2v-2l-4-2-15-11z" fill="#E32E01"/>
<path transform="translate(666,497)" d="m0 0 2 1-2 4 1 8h-2l-1 3-2-8-3 3h-2l2-4z" fill="#9A2819"/>
<path transform="translate(407,492)" d="m0 0 6 2 12 7 11 8v2l-4-2-11-8-14-8z" fill="#FB5300"/>
<path transform="translate(605,336)" d="m0 0 5 5 2 4v3 2l4 2-3 2-5-6-2-6v-2z" fill="#FEB402"/>
<path transform="translate(678,332)" d="m0 0 2 1-2 4 4-2v4l-3 3h-2-3v-3z" fill="#FFC700"/>
<path transform="translate(583,302)" d="m0 0h2v8l-2 4h-3v-8z" fill="#FFCD00"/>
<path transform="translate(326,484)" d="m0 0h5l-3 2-18 4-4-1 2-2 13-2z" fill="#962413"/>
<path transform="translate(603,311)" d="m0 0 2 2 1 8v9h-1v-5h-2l-1-2v-8z" fill="#AD250F"/>
<path transform="translate(406,579)" d="m0 0v3l-4 6-4 5 3 1-6 4-2-1 7-10z" fill="#992312"/>
<path transform="translate(492,357)" d="m0 0 2 4-8 10h-2l1-4z" fill="#FC9626"/>
<path transform="translate(587,344)" d="m0 0 3 3 3 5v2l3 1 1 6-5-4-4-7z" fill="#FC5B00"/>
<path transform="translate(317,590)" d="m0 0h5l-4 6-7 8h-2l2-4 7-7-5-1z" fill="#FE5800"/>
<path transform="translate(583,254)" d="m0 0 2 1-7 7v-3zm-7 8m-1 1m-2 1 2 1-7 8h-3l2-4z" fill="#FDB61E"/>
<path transform="translate(318,768)" d="m0 0m-2 1h2v3l-12 5-2-2 2-2 9-3z" fill="#FB6C03"/>
<path transform="translate(862,114)" d="m0 0h1v10l-2 3-1-4-4 6v-3z" fill="#A02311"/>
<path transform="translate(305,556)" d="m0 0 3 2-10 7-1 3-3-2 5-6z" fill="#FB6D00"/>
<path transform="translate(693,473)" d="m0 0 2 1-15 14-2-1 8-9 5-3z" fill="#9A2412"/>
<path transform="translate(659,287)" d="m0 0 5 1 5 2 8 9-1 3-5-7-10-6z" fill="#8D2213"/>
<path transform="translate(523,661)" d="m0 0h2l-1 12-1 4-3 1z" fill="#9C291A"/>
<path transform="translate(599,456)" d="m0 0v3l-14 14-2-2 12-11z" fill="#B4250F"/>
<path transform="translate(653,183)" d="m0 0h3v2h2v2l5 2v2l-5-2-8-4z" fill="#FE8D0A"/>
<path transform="translate(409,544)" d="m0 0h5l-1 5v3l-4-1-2-4h2z" fill="#F23400"/>
<path transform="translate(611,537)" d="m0 0 2 1-10 7h-2v-5l9-2z" fill="#D02A08"/>
<path transform="translate(679,227)" d="m0 0 5 2 12 10h-3l-11-8-3-2z" fill="#FE8101"/>
<path transform="translate(704,247)" d="m0 0 4 2 10 9 3 4-4-2-13-12z" fill="#FB4F00"/>
<path transform="translate(603,325)" d="m0 0h2l2 4 3 12-4-4-3-9z" fill="#902213"/>
<path transform="translate(414,426)" d="m0 0h2v5l-3 1-2 6-3 3 3-9z" fill="#F64800"/>
<path transform="translate(338,540)" d="m0 0 2 1v2l-10 4-3-1 6-4z" fill="#FC6B02"/>
<path transform="translate(398,481)" d="m0 0 6 1-4 6-2 1-2-5z" fill="#FD5000"/>
<path transform="translate(660,355)" d="m0 0m-2 1 2 1-2 4-8 1 2-4z" fill="#FFD400"/>
<path transform="translate(610,345)" d="m0 0 5 2 10 7-2 1-9-5h-2z" fill="#FFCF00"/>
<path transform="translate(346,604)" d="m0 0 1 4-5 8-1-4 1-4 3-1z" fill="#FFBD00"/>
<path transform="translate(851,109)" d="m0 0 9 2-3 2-15-1v-1l8-1z" fill="#FA4E00"/>
<path transform="translate(289,780)" d="m0 0 4 1-9 4-5-1 3-2z" fill="#FB6D02"/>
<path transform="translate(603,342)" d="m0 0 5 3 3 7-4-2-4-6z" fill="#FE6F00"/>
<path transform="translate(135,760)" d="m0 0h7l4 2-4 1-1 2-6-4z" fill="#FB6E04"/>
<path transform="translate(134,759)" d="m0 0" fill="#FBA63E"/>
</svg>